<svg width="458" height="118" viewBox="0 0 458 118" fill="none" xmlns="http://www.w3.org/2000/svg">
<g clip-path="url(#clip0_75_817)">
<path d="M102.959 101.181C120.135 87.6419 118.608 60.7597 103.202 45.2446C101.189 43.2176 99.0103 41.4579 96.7082 39.9548C96.7082 39.9765 96.7082 39.9982 96.7082 40.0199C96.7082 53.3309 90.1963 65.1208 80.1842 72.3978C80.1842 72.5387 80.1878 72.6796 80.1878 72.8205C80.1878 89.0004 70.5702 102.937 56.7283 109.245C67.497 116.584 83.3406 121.657 107.404 113.686C112.78 111.905 93.0812 108.963 102.956 101.181H102.959Z" fill="#FA0F9C"/>
<path d="M58.3934 37.2015C70.6534 31.5288 85.2083 32.4574 96.7082 39.9584C96.672 17.8854 78.7363 0 56.6125 0C34.4887 0 16.5204 17.9179 16.5204 40.0234C16.5204 40.1644 16.5241 40.3053 16.5241 40.4462C23.1409 35.637 31.2853 32.8007 40.0957 32.8007C46.6872 32.8007 52.9095 34.3905 58.3934 37.2015Z" fill="#2FEDF9"/>
<path d="M58.3934 37.2016C71.2181 43.7776 80.0249 57.0561 80.1842 72.4014C90.1963 65.1244 96.7082 53.3345 96.7082 40.0235C96.7082 40.0018 96.7082 39.9801 96.7082 39.9585C85.2084 32.4574 70.6498 31.5288 58.3934 37.2016Z" fill="#DE1777"/>
<path d="M46.9261 100.942C39.5021 93.4662 35.6796 83.7756 35.4516 74.0236C24.1979 67.0284 16.6725 54.6207 16.524 40.4497C6.51189 47.7231 0 59.513 0 72.824C0 94.9296 17.9502 112.847 40.0957 112.847C46.032 112.847 51.6643 111.558 56.732 109.249C52.8516 106.604 49.6337 103.67 46.9261 100.942Z" fill="#4B49EB"/>
<path d="M80.1914 72.8241C80.1914 72.6832 80.1878 72.5423 80.1878 72.4014C73.5709 77.2105 65.4265 80.0469 56.6161 80.0469C48.8482 80.0469 41.5979 77.8392 35.4552 74.0201C35.6832 83.7757 39.5021 93.4627 46.9297 100.938C49.6373 103.663 52.8588 106.6 56.7356 109.245C70.5738 102.937 80.195 89.0004 80.195 72.8205L80.1914 72.8241Z" fill="#3735D0"/>
<path d="M35.4516 74.02C35.2055 63.5344 39.1148 52.973 47.165 45.0059C50.5241 41.6818 54.3321 39.0803 58.3934 37.2014C52.9059 34.3867 46.6872 32.8005 40.0957 32.8005C31.2853 32.8005 23.1409 35.6405 16.524 40.4461C16.6725 54.6207 24.1979 67.0248 35.4516 74.02Z" fill="#1BBBDE"/>
<path d="M58.3934 37.2017C54.3357 39.0805 50.5278 41.6784 47.165 45.0062C39.1148 52.9733 35.2055 63.5347 35.4516 74.0202C41.5943 77.8393 48.8446 80.047 56.6125 80.047C65.4229 80.047 73.5673 77.207 80.1842 72.4015C80.0249 57.0562 71.2181 43.7813 58.3934 37.2017Z" fill="#201EA6"/>
</g>
<path d="M150.135 81.3635C144.349 81.3635 139.842 79.875 136.613 76.898C133.426 73.921 131.833 69.8328 131.833 64.6336C131.833 61.405 132.504 58.5328 133.846 56.017C135.187 53.5013 137.074 51.5515 139.506 50.1679C141.938 48.7423 144.789 48.0295 148.06 48.0295C151.288 48.0295 153.972 48.7423 156.11 50.1679C158.291 51.5515 159.926 53.4803 161.016 55.9541C162.106 58.3861 162.651 61.2163 162.651 64.4449V66.8349H141.204V61.5517H154.412L153.343 62.4323C153.343 60.0423 152.882 58.2812 151.959 57.1491C151.079 55.9751 149.821 55.3881 148.186 55.3881C146.299 55.3881 144.852 56.1009 143.846 57.5265C142.881 58.9102 142.399 61.0067 142.399 63.8159V64.948C142.399 67.7573 143.091 69.8119 144.475 71.1117C145.858 72.4115 147.85 73.0614 150.45 73.0614C152.127 73.0614 153.699 72.8727 155.167 72.4954C156.676 72.118 158.102 71.51 159.444 70.6714L162.337 77.9672C160.743 79.0573 158.899 79.8959 156.802 80.4829C154.706 81.07 152.483 81.3635 150.135 81.3635ZM162.889 80.6716L178.361 61.8033V66.6462L163.77 48.7213H176.852L184.776 59.0989H180.751L188.739 48.7213H201.758L187.166 66.7091V61.6775L202.701 80.6716H189.493L180.751 69.4135H184.776L175.971 80.6716H162.889ZM204.802 94.2568V57.4007C204.802 55.9751 204.76 54.5285 204.676 53.061C204.593 51.5935 204.467 50.1469 204.299 48.7213H215.117L215.809 54.3818H215.18C215.767 52.495 217.067 50.9645 219.079 49.7905C221.092 48.6165 223.335 48.0295 225.809 48.0295C228.576 48.0295 231.008 48.7003 233.105 50.0421C235.201 51.3419 236.836 53.2497 238.011 55.7655C239.226 58.2393 239.834 61.2163 239.834 64.6965C239.834 68.1347 239.226 71.1117 238.011 73.6275C236.836 76.1432 235.201 78.072 233.105 79.4137C231.008 80.7136 228.576 81.3635 225.809 81.3635C223.377 81.3635 221.176 80.8184 219.205 79.7282C217.234 78.5961 215.935 77.1076 215.306 75.2627H215.997V94.2568H204.802ZM222.224 73.0614C224.153 73.0614 225.683 72.4115 226.815 71.1117C227.989 69.7699 228.576 67.6315 228.576 64.6965C228.576 61.7614 227.989 59.6439 226.815 58.3441C225.683 57.0024 224.153 56.3315 222.224 56.3315C220.337 56.3315 218.807 57.0024 217.633 58.3441C216.459 59.6439 215.872 61.7614 215.872 64.6965C215.872 67.6315 216.459 69.7699 217.633 71.1117C218.807 72.4115 220.337 73.0614 222.224 73.0614ZM262.763 81.3635C256.977 81.3635 252.469 79.875 249.241 76.898C246.054 73.921 244.461 69.8328 244.461 64.6336C244.461 61.405 245.131 58.5328 246.473 56.017C247.815 53.5013 249.702 51.5515 252.134 50.1679C254.566 48.7423 257.417 48.0295 260.687 48.0295C263.916 48.0295 266.599 48.7423 268.738 50.1679C270.918 51.5515 272.553 53.4803 273.644 55.9541C274.734 58.3861 275.279 61.2163 275.279 64.4449V66.8349H253.832V61.5517H267.04L265.97 62.4323C265.97 60.0423 265.509 58.2812 264.587 57.1491C263.706 55.9751 262.448 55.3881 260.813 55.3881C258.926 55.3881 257.48 56.1009 256.473 57.5265C255.509 58.9102 255.027 61.0067 255.027 63.8159V64.948C255.027 67.7573 255.719 69.8119 257.102 71.1117C258.486 72.4115 260.478 73.0614 263.077 73.0614C264.755 73.0614 266.327 72.8727 267.794 72.4954C269.304 72.118 270.729 71.51 272.071 70.6714L274.964 77.9672C273.371 79.0573 271.526 79.8959 269.43 80.4829C267.333 81.07 265.111 81.3635 262.763 81.3635ZM298.094 81.3635C292.308 81.3635 287.801 79.875 284.572 76.898C281.385 73.921 279.792 69.8328 279.792 64.6336C279.792 61.405 280.463 58.5328 281.805 56.017C283.146 53.5013 285.033 51.5515 287.465 50.1679C289.897 48.7423 292.748 48.0295 296.019 48.0295C299.247 48.0295 301.931 48.7423 304.069 50.1679C306.25 51.5515 307.885 53.4803 308.975 55.9541C310.065 58.3861 310.61 61.2163 310.61 64.4449V66.8349H289.163V61.5517H302.371L301.302 62.4323C301.302 60.0423 300.841 58.2812 299.918 57.1491C299.038 55.9751 297.78 55.3881 296.145 55.3881C294.258 55.3881 292.811 56.1009 291.805 57.5265C290.84 58.9102 290.358 61.0067 290.358 63.8159V64.948C290.358 67.7573 291.05 69.8119 292.434 71.1117C293.817 72.4115 295.809 73.0614 298.409 73.0614C300.086 73.0614 301.658 72.8727 303.126 72.4954C304.635 72.118 306.061 71.51 307.403 70.6714L310.296 77.9672C308.702 79.0573 306.858 79.8959 304.761 80.4829C302.665 81.07 300.442 81.3635 298.094 81.3635ZM316.57 80.6716V57.4636C316.57 55.9961 316.528 54.5285 316.444 53.061C316.36 51.5935 316.235 50.1469 316.067 48.7213H326.885L328.08 58.5328H326.382C326.801 56.1428 327.472 54.1721 328.394 52.6207C329.317 51.0693 330.47 49.9163 331.853 49.1615C333.237 48.4068 334.872 48.0295 336.759 48.0295C337.64 48.0295 338.29 48.0714 338.709 48.1552C339.17 48.1972 339.652 48.323 340.155 48.5326V58.3441C339.107 57.8829 338.269 57.5894 337.64 57.4636C337.011 57.3378 336.193 57.2749 335.187 57.2749C333.468 57.2749 332.063 57.5894 330.973 58.2183C329.883 58.8054 329.086 59.7278 328.583 60.9857C328.122 62.2436 327.891 63.8579 327.891 65.8286V80.6716H316.57ZM344.162 80.6716V34.3814H355.358V80.6716H344.162ZM363.036 94.9487L360.395 86.2692C362.407 85.8919 364.084 85.4726 365.426 85.0113C366.81 84.592 367.942 84.005 368.822 83.2503C369.703 82.4956 370.395 81.5102 370.898 80.2943L372.47 76.6464L372.219 80.8603L358.256 48.7213H370.08L378.257 69.9167H376.181L384.609 48.7213H395.678L381.338 81.3635C380.206 83.9212 378.99 86.0177 377.691 87.6529C376.433 89.2882 375.049 90.588 373.54 91.5524C372.072 92.5167 370.458 93.2295 368.697 93.6908C366.978 94.1939 365.091 94.6132 363.036 94.9487Z" fill="#2C1277"/>
<defs>
<clipPath id="clip0_75_817">
<rect width="115.306" height="117.725" fill="white"/>
</clipPath>
</defs>
</svg>
